<svg width="418" height="64" viewBox="0 0 418 64" fill="none" xmlns="http://www.w3.org/2000/svg">
<path d="M35.8769 62.048C33.3302 64.6506 29.2011 64.6506 26.6544 62.048L1.94388 36.7956C-0.647961 34.1472 -0.647961 29.8527 1.94388 27.2043L26.6544 1.95195C29.2011 -0.650649 33.3302 -0.650649 35.8769 1.95195C38.4424 4.57382 38.4214 8.83102 35.8305 11.4263L15.2924 32L35.8305 52.5736C38.4214 55.169 38.4424 59.4262 35.8769 62.048Z" fill="white"/>
<path d="M52.5968 9.74246C51.1718 4.88771 54.7286 0.00136011 59.6881 0.00136011C62.9574 0.00136011 65.8399 2.19315 66.7792 5.39394L80.9615 54.2475C82.3865 59.1023 78.8297 63.9886 73.8702 63.9886C70.6009 63.9886 67.7184 61.7968 66.7792 58.596L52.5968 9.74246Z" fill="white"/>
<path d="M396.934 14.8099C401.319 14.8099 405.095 15.705 408.262 17.4952C411.428 19.2583 413.837 21.7809 415.488 25.0629C417.166 28.345 418.005 32.2102 418.005 36.6586V62.6573H401.4V39.0998C401.4 35.6279 400.521 32.9697 398.761 31.1252C397.002 29.2808 394.485 28.3586 391.21 28.3586C388.909 28.3586 386.907 28.8468 385.201 29.8233C383.523 30.7726 382.224 32.156 381.304 33.9733C380.411 35.7635 379.964 37.8657 379.964 40.2797V62.6573H363.359V0H379.964V23.5168C381.994 20.6688 384.471 18.5124 387.394 17.0477C390.317 15.5558 393.497 14.8099 396.934 14.8099Z" fill="white"/>
<path d="M356.342 47.476C356.342 51.0293 355.259 54.0401 353.094 56.5084C350.956 58.9768 347.87 60.8483 343.837 62.1232C339.804 63.3709 334.987 63.9948 329.384 63.9948C323.646 63.9948 318.585 63.2895 314.2 61.8791C309.843 60.4686 306.432 58.4885 303.969 55.9388C301.506 53.362 300.194 50.3919 300.031 47.0285H316.88C317.421 48.9272 318.815 50.3919 321.061 51.4226C323.335 52.4533 326.339 52.9687 330.074 52.9687C333.403 52.9687 335.907 52.6432 337.585 51.9922C339.29 51.3412 340.143 50.3783 340.143 49.1035C340.143 48.3711 339.859 47.7879 339.29 47.3539C338.749 46.8928 337.856 46.5267 336.611 46.2554C335.393 45.957 333.715 45.7265 331.576 45.5637L323.375 44.9534C315.445 44.3567 309.788 42.8513 306.405 40.4372C303.022 38.0232 301.33 34.714 301.33 30.5097C301.33 27.092 302.4 24.2168 304.538 21.8841C306.703 19.5243 309.748 17.7612 313.672 16.5949C317.597 15.4014 322.198 14.8047 327.476 14.8047C332.618 14.8047 337.233 15.4828 341.32 16.839C345.434 18.1952 348.709 20.0939 351.145 22.5351C353.608 24.9763 355.015 27.7837 355.367 30.9573H338.519C338.086 29.3298 336.895 27.9871 334.946 26.9293C332.997 25.8714 330.25 25.3425 326.705 25.3425C323.754 25.3425 321.494 25.668 319.925 26.319C318.382 26.9428 317.61 27.838 317.61 29.0043C317.61 30.0079 318.098 30.7674 319.072 31.2827C320.046 31.7981 321.819 32.1507 324.39 32.3406L335.149 33.1543C340.4 33.5341 344.582 34.3207 347.694 35.5142C350.807 36.7076 353.026 38.2944 354.352 40.2745C355.679 42.2274 356.342 44.628 356.342 47.476Z" fill="white"/>
<path d="M294.809 16.1473L291.886 39.3794L294.809 62.6521H277.595L276.377 53.2535C274.131 56.6712 271.329 59.3158 267.973 61.1874C264.617 63.059 260.868 63.9948 256.727 63.9948C252.234 63.9948 248.242 62.9776 244.751 60.9433C241.286 58.8818 238.593 55.9931 236.672 52.277C234.75 48.5339 233.789 44.2482 233.789 39.4201C233.789 34.5648 234.75 30.2791 236.672 26.5631C238.593 22.8199 241.286 19.9312 244.751 17.8969C248.242 15.8354 252.234 14.8047 256.727 14.8047C260.841 14.8047 264.59 15.7269 267.973 17.5714C271.356 19.4158 274.171 22.0333 276.418 25.4239L277.595 16.1473H294.809ZM261.721 51.2599C263.913 51.2599 266.011 50.7581 268.014 49.7545C270.044 48.7237 271.817 47.3133 273.332 45.5231C274.875 43.7328 276.025 41.6985 276.783 39.4201C276.025 37.1416 274.875 35.1073 273.332 33.3171C271.817 31.4997 270.044 30.0893 268.014 29.0857C266.011 28.0549 263.913 27.5396 261.721 27.5396C259.556 27.5396 257.62 28.0549 255.915 29.0857C254.237 30.0893 252.925 31.4997 251.977 33.3171C251.03 35.1073 250.556 37.1416 250.556 39.4201C250.556 41.6985 251.03 43.7328 251.977 45.5231C252.925 47.3133 254.237 48.7237 255.915 49.7545C257.62 50.7581 259.556 51.2599 261.721 51.2599Z" fill="white"/>
<path d="M205.636 14.8099C210.129 14.8099 214.108 15.8406 217.572 17.9021C221.036 19.9364 223.73 22.8252 225.651 26.5683C227.573 30.2844 228.534 34.57 228.534 39.4253C228.534 44.2534 227.573 48.5391 225.651 52.2823C223.73 55.9983 221.036 58.8871 217.572 60.9485C214.108 62.9828 210.129 64 205.636 64C201.576 64 197.895 63.1049 194.593 61.3147C191.291 59.5245 188.503 56.9748 186.23 53.6656V62.6573H169.625V0H186.23V24.9816C188.476 21.7266 191.264 19.2176 194.593 17.4545C197.922 15.6915 201.603 14.8099 205.636 14.8099ZM200.602 51.2651C202.767 51.2651 204.702 50.7633 206.407 49.7597C208.113 48.729 209.439 47.3185 210.386 45.5283C211.333 43.7381 211.807 41.7038 211.807 39.4253C211.807 37.1469 211.333 35.1125 210.386 33.3223C209.439 31.505 208.113 30.0945 206.407 29.0909C204.702 28.0602 202.767 27.5448 200.602 27.5448C198.409 27.5448 196.298 28.0602 194.268 29.0909C192.266 30.0945 190.493 31.505 188.95 33.3223C187.434 35.1125 186.298 37.1469 185.54 39.4253C186.298 41.7038 187.434 43.7381 188.95 45.5283C190.493 47.3185 192.266 48.729 194.268 49.7597C196.298 50.7633 198.409 51.2651 200.602 51.2651Z" fill="white"/>
<path d="M140.02 14.8099C144.405 14.8099 148.181 15.705 151.347 17.4952C154.514 19.2583 156.923 21.7809 158.574 25.0629C160.252 28.345 161.091 32.2102 161.091 36.6586V62.6573H144.486V39.0998C144.486 35.6279 143.607 32.9697 141.847 31.1252C140.088 29.2808 137.571 28.3586 134.296 28.3586C131.995 28.3586 129.993 28.8468 128.287 29.8233C126.609 30.7726 125.31 32.156 124.39 33.9733C123.497 35.7635 123.05 37.8657 123.05 40.2797V62.6573H106.445V0H123.05V23.5168C125.08 20.6688 127.557 18.5124 130.48 17.0477C133.403 15.5558 136.583 14.8099 140.02 14.8099Z" fill="white"/>
</svg>
