<svg width="24" height="24" viewBox="0 0 24 24" fill="none" xmlns="http://www.w3.org/2000/svg">
<path d="M15 12C15 14.4853 13.6569 16.5 12 16.5C10.3431 16.5 9 14.4853 9 12C9 9.51472 10.3431 7.5 12 7.5C13.6569 7.5 15 9.51472 15 12Z" fill="white"/>
<path fill-rule="evenodd" clip-rule="evenodd" d="M4.5 0C2.01472 0 0 2.01472 0 4.5V19.5C0 21.9853 2.01472 24 4.5 24H19.5C21.9853 24 24 21.9853 24 19.5V4.5C24 2.01472 21.9853 0 19.5 0H4.5ZM12 19.5C16.1421 19.5 19.5 16.1421 19.5 12C19.5 7.85786 16.1421 4.5 12 4.5C7.85786 4.5 4.5 7.85786 4.5 12C4.5 16.1421 7.85786 19.5 12 19.5ZM15 12C15 14.4853 13.6569 16.5 12 16.5C10.3431 16.5 9 14.4853 9 12C9 9.51472 10.3431 7.5 12 7.5C13.6569 7.5 15 9.51472 15 12Z" fill="white"/>
</svg>
